<?xml version="1.0" encoding="utf-8"?>
<!-- Generator: Adobe Illustrator 16.0.0, SVG Export Plug-In . SVG Version: 6.00 Build 0)  -->
<!DOCTYPE svg PUBLIC "-//W3C//DTD SVG 1.1//EN" "http://www.w3.org/Graphics/SVG/1.1/DTD/svg11.dtd">
<svg version="1.1" id="Layer_1" xmlns="http://www.w3.org/2000/svg" xmlns:xlink="http://www.w3.org/1999/xlink" x="0px" y="0px"
	 width="300px" height="300px" viewBox="0 0 300 300" enable-background="new 0 0 300 300" xml:space="preserve">
<path fill="#F7C421" d="M98.098,122.667H124.5c2.341,0,4.211-1.841,4.327-4.157c0.127,2.315,1.999,4.157,4.346,4.157h35.084
	c2.408,0,4.376-1.948,4.376-4.383v-4.38h-10.957c-2.412,0-4.391-1.959-4.391-4.384c0-2.428,1.979-4.39,4.391-4.39h10.957v-8.764
	h-21.917c-2.415,0-4.391-1.959-4.391-4.383c0-2.428,1.976-4.39,4.391-4.39h21.917v-8.764h-10.957c-2.412,0-4.391-1.958-4.391-4.39
	c0-2.422,1.979-4.383,4.391-4.383h10.957v-8.764h-21.917c-2.415,0-4.391-1.956-4.391-4.384c0-2.427,1.976-4.39,4.391-4.39h21.917
	V39.365c0-2.418-1.968-4.384-4.376-4.384h-35.084c-2.415,0-4.384,1.965-4.384,4.384v78.502c-0.107-1.052-0.523-2.026-1.252-2.722
	l-19.44-27.247l-23.543,19.619l10.046,13.4C95.411,122.021,96.719,122.667,98.098,122.667"/>
<path fill="#F7C421" d="M212.094,140.208h-4.378v-4.383c0-2.422-1.968-4.383-4.39-4.383H89.328c-2.412,0-4.381,1.961-4.381,4.383
	v87.69c0,12.082,9.839,21.924,21.918,21.924h78.927c12.088,0,21.924-9.842,21.924-21.924v-21.925h4.378
	c16.938,0,30.69-13.759,30.69-30.691C242.784,153.98,229.032,140.208,212.094,140.208 M212.094,192.824h-4.378v-43.849h4.378
	c12.094,0,21.93,9.842,21.93,21.924C234.023,182.988,224.188,192.824,212.094,192.824"/>
<path fill="#F7C421" d="M177.019,122.667h17.541c1.67,0,3.198-0.945,3.937-2.454l13.352-27.217c8.83-1.266,15.468-9.129,16.82-20.48
	c1.711-14.381-5.489-32.038-25.361-36.845c-1.755-0.418-3.567,0.271-4.604,1.732c-1.036,1.473-1.074,3.422-0.084,4.94
	c4.623,7.067,1.833,11.237-3.101,17.469c-1.892,2.379-3.679,4.642-4.747,7.193c-2.065,4.866-2.169,10.007-0.303,14.436
	c0.813,1.949,2.045,3.685,3.534,5.251l-17.321,24.465l-1.101,1.57l-2.148,3.03c-0.939,1.347-1.068,3.099-0.305,4.542
	C173.892,121.749,175.381,122.667,177.019,122.667 M198.845,70.409c0.622-1.467,2.034-3.258,3.548-5.139
	c3.329-4.211,7.861-9.932,7.357-17.379c8.222,5.611,11.194,15.33,10.216,23.585c-0.718,5.999-3.923,12.995-10.599,12.995h-0.006
	l-7.479-2.48c-1.534-1.074-2.688-2.396-3.341-3.946C197.602,75.766,197.692,73.134,198.845,70.409"/>
<path fill="#F7C421" d="M82.824,70.687c-1.467-0.88-3.309-0.829-4.728,0.127c-1.411,0.974-2.143,2.664-1.865,4.347l4.093,24.481
	l21.238-17.725L82.824,70.687z"/>
</svg>
